<svg version="1.1" id="Layer_1" xmlns="http://www.w3.org/2000/svg" xmlns:xlink="http://www.w3.org/1999/xlink" x="0px" y="0px"
	 width="100%" viewBox="0 0 1167 1168" enable-background="new 0 0 1167 1168" xml:space="preserve">
<path fill="#000000" opacity="1.000000" stroke="none" 
	d="
M597.000000,1169.000000 
	C588.979065,1169.000000 580.958191,1169.000000 572.301392,1168.591309 
	C562.089050,1167.788330 552.506165,1167.508545 542.938049,1166.967163 
	C533.764282,1166.448120 524.542847,1166.119507 515.455078,1164.880371 
	C501.342102,1162.955933 487.210541,1160.861938 473.294403,1157.873169 
	C454.288452,1153.791260 435.172791,1149.770752 416.661560,1143.950806 
	C394.695435,1137.044556 372.940338,1129.139526 351.798645,1120.031128 
	C330.893799,1111.024780 310.350983,1100.882812 290.592041,1089.589722 
	C267.908508,1076.625122 245.928970,1062.317627 225.881592,1045.364990 
	C209.769119,1031.739868 193.368561,1018.412964 177.888947,1004.096252 
	C166.754868,993.798645 156.699280,982.291809 146.584106,970.948547 
	C137.457047,960.713318 128.401581,950.341797 120.201836,939.367371 
	C104.003334,917.687622 89.048409,895.178955 75.717194,871.547363 
	C61.795696,846.869446 49.346741,821.531799 39.653198,794.959656 
	C32.412140,775.110291 25.523420,755.027161 20.265808,734.588196 
	C14.729128,713.064270 10.748488,691.086426 7.166161,669.131042 
	C4.541600,653.045593 3.672019,636.674561 1.972097,620.435852 
	C1.849987,619.269409 1.333251,618.144348 0.999999,617.000000 
	C1.000000,595.979126 1.000000,574.958191 1.407881,553.302490 
	C2.876524,540.090942 3.689303,527.486816 5.068099,514.945007 
	C6.434898,502.512329 7.691807,490.001648 10.220506,477.778259 
	C13.899454,459.994690 18.432852,442.374603 23.037138,424.798767 
	C30.815950,395.104950 41.742393,366.519043 54.747272,338.750854 
	C70.975006,304.101196 89.611244,270.783295 113.071144,240.474762 
	C128.035324,221.142120 143.315643,201.932022 159.923706,184.030273 
	C174.834412,167.958099 191.466705,153.426880 207.885910,138.830490 
	C218.560944,129.340546 230.016388,120.686081 241.472595,112.126251 
	C264.086792,95.229439 288.038971,80.343369 313.173950,67.551392 
	C330.607849,58.678753 348.527771,50.702084 366.517975,42.996155 
	C389.981598,32.945751 414.308868,25.267836 439.054626,19.060387 
	C462.271698,13.236407 485.661591,8.161927 509.570160,5.989998 
	C524.400696,4.642746 539.235718,3.345065 554.063782,1.971870 
	C555.394409,1.848637 556.688782,1.333259 558.000000,0.999999 
	C575.354248,1.000000 592.708435,1.000000 610.698181,1.408385 
	C627.659790,3.210765 644.003479,4.428783 660.305420,6.063767 
	C670.324768,7.068645 680.391235,8.170030 690.238708,10.192019 
	C705.674500,13.361494 720.967407,17.246288 736.277283,21.005754 
	C770.193604,29.334171 802.629883,41.823120 834.145813,56.688267 
	C862.714600,70.163322 889.959778,85.961067 916.010986,103.907341 
	C939.397827,120.018181 961.393066,137.823090 982.251465,156.988632 
	C993.841736,167.638214 1004.395264,179.425827 1015.285889,190.824890 
	C1031.198120,207.480164 1045.314819,225.583023 1058.866211,244.204361 
	C1073.687500,264.570465 1087.117920,285.794128 1098.846680,308.012421 
	C1107.909790,325.181183 1116.595825,342.675598 1123.724121,360.707367 
	C1132.725586,383.477448 1140.951416,406.659454 1147.713867,430.180725 
	C1154.980591,455.455780 1160.542114,481.256561 1163.013184,507.572021 
	C1164.343140,521.736694 1165.656738,535.902954 1167.031006,550.063293 
	C1167.128174,551.064148 1167.666748,552.022095 1168.000000,553.000000 
	C1168.000000,574.020874 1168.000000,595.041809 1167.592041,616.697510 
	C1165.456665,634.902649 1164.185059,652.533508 1161.865479,670.025330 
	C1159.805420,685.559448 1157.597290,701.205322 1153.636108,716.325500 
	C1147.587891,739.411682 1140.364380,762.215576 1132.930542,784.906921 
	C1122.449951,816.897583 1107.677490,847.045776 1090.866211,876.105896 
	C1074.009033,905.245483 1055.045044,932.999939 1033.013306,958.590027 
	C1018.086853,975.927307 1003.507019,993.560791 986.013245,1008.458313 
	C968.465515,1023.401855 951.277405,1038.805176 933.197754,1053.077148 
	C910.401550,1071.072266 885.834961,1086.643799 859.972839,1099.801636 
	C838.692383,1110.628418 816.910828,1120.681763 794.687561,1129.382202 
	C774.141052,1137.425903 752.922791,1143.992432 731.608826,1149.763184 
	C713.747131,1154.599487 695.387207,1157.733154 677.123230,1160.902710 
	C662.237000,1163.486084 647.204651,1165.398315 632.164612,1166.866333 
	C621.650757,1167.892334 611.013611,1167.639282 600.434631,1168.039062 
	C599.279297,1168.082642 598.144348,1168.666626 597.000000,1169.000000 
M384.690460,649.209778 
	C424.044281,634.468384 449.346893,607.087036 459.252014,566.006165 
	C459.755646,563.917480 459.350006,560.954651 458.169312,559.209778 
	C422.634491,506.695374 386.914825,454.306061 351.376465,401.794006 
	C349.398102,398.870697 347.359436,398.096619 344.102478,398.100159 
	C275.439484,398.174408 206.776382,398.156311 138.113297,398.156311 
	C136.353378,398.156311 134.593460,398.156342 132.743958,398.156342 
	C132.743958,523.689697 132.743958,648.602417 132.743958,773.501831 
	C171.433395,773.501831 209.816238,773.501831 248.768143,773.501831 
	C248.768143,735.615723 248.768143,698.067810 248.768143,660.222168 
	C272.313812,660.222168 295.289825,660.278503 318.265381,660.206116 
	C340.725647,660.135376 362.730988,657.142578 384.690460,649.209778 
M709.879089,469.402405 
	C725.931885,445.836975 741.984680,422.271545 758.411133,398.157501 
	C716.417175,398.157501 675.435547,398.106689 634.455200,398.318878 
	C632.556091,398.328705 630.086304,400.282166 628.859802,402.020203 
	C542.680542,524.142700 456.600494,646.335327 370.518372,768.526428 
	C369.423096,770.081116 368.407074,771.691711 367.147400,773.587158 
	C368.345001,773.728821 368.817474,773.833557 369.289917,773.833618 
	C412.453064,773.841797 455.616394,773.794189 498.779053,773.940247 
	C501.972778,773.951050 503.086945,772.350586 504.395172,770.134399 
	C519.444641,744.640137 534.535583,719.170410 549.618469,693.695862 
	C555.772095,683.302551 561.932983,672.913452 568.312073,662.148621 
	C569.824646,664.752197 571.003479,666.756653 572.159180,668.774353 
	C591.499329,702.540283 610.869324,736.289246 630.114380,770.109314 
	C631.698425,772.893127 633.367310,773.943787 636.669189,773.933411 
	C679.998596,773.797058 723.328491,773.842773 766.658325,773.842773 
	C768.088867,773.842773 769.519409,773.842712 772.117859,773.842712 
	C727.018555,706.982056 682.509521,640.996521 637.952698,574.940063 
	C661.874084,539.832825 685.669067,504.911102 709.879089,469.402405 
M1048.843750,685.576599 
	C1048.843750,682.826416 1048.843750,680.076172 1048.843750,676.949585 
	C992.957703,676.949585 937.855835,676.949585 882.561523,676.949585 
	C882.561523,630.231750 882.561523,583.910400 882.561523,537.589050 
	C882.561523,491.174438 882.561523,444.759827 882.561523,398.490112 
	C843.513794,398.490112 805.259705,398.490112 766.935120,398.490112 
	C766.872314,399.813690 766.783936,400.806854 766.783875,401.800018 
	C766.777649,502.966553 766.763428,604.133118 766.870239,705.299500 
	C766.872681,707.590759 767.773376,710.202271 769.063110,712.121277 
	C782.152222,731.597534 795.478333,750.914612 808.541443,770.408020 
	C810.381042,773.153198 812.313110,773.912354 815.446350,773.908936 
	C891.446228,773.825195 967.446106,773.843628 1043.446045,773.843628 
	C1045.190430,773.843628 1046.934692,773.843628 1048.843750,773.843628 
	C1048.843750,744.214966 1048.843750,715.386963 1048.843750,685.576599 
M514.909058,398.156311 
	C470.716309,398.156311 426.523590,398.156311 381.359833,398.156311 
	C418.497162,450.346802 455.056702,501.725342 492.135254,553.833191 
	C492.690125,552.744263 492.863678,552.270142 493.144409,551.871582 
	C512.966675,523.726746 532.831299,495.611481 552.521912,467.374817 
	C553.445374,466.050507 553.585571,463.232452 552.808044,461.812073 
	C541.720459,441.556396 530.434143,421.409119 519.101929,401.288513 
	C518.388794,400.022339 516.900391,399.192780 514.909058,398.156311 
z"/>
<path fill="#FFFFFF" opacity="1.000000" stroke="none" 
	d="
M597.468628,1169.000000 
	C598.144348,1168.666626 599.279297,1168.082642 600.434631,1168.039062 
	C611.013611,1167.639282 621.650757,1167.892334 632.164612,1166.866333 
	C647.204651,1165.398315 662.237000,1163.486084 677.123230,1160.902710 
	C695.387207,1157.733154 713.747131,1154.599487 731.608826,1149.763184 
	C752.922791,1143.992432 774.141052,1137.425903 794.687561,1129.382202 
	C816.910828,1120.681763 838.692383,1110.628418 859.972839,1099.801636 
	C885.834961,1086.643799 910.401550,1071.072266 933.197754,1053.077148 
	C951.277405,1038.805176 968.465515,1023.401855 986.013245,1008.458313 
	C1003.507019,993.560791 1018.086853,975.927307 1033.013306,958.590027 
	C1055.045044,932.999939 1074.009033,905.245483 1090.866211,876.105896 
	C1107.677490,847.045776 1122.449951,816.897583 1132.930542,784.906921 
	C1140.364380,762.215576 1147.587891,739.411682 1153.636108,716.325500 
	C1157.597290,701.205322 1159.805420,685.559448 1161.865479,670.025330 
	C1164.185059,652.533508 1165.456665,634.902649 1167.592041,617.166138 
	C1168.000000,800.928345 1168.000000,984.856689 1168.000000,1169.000000 
	C977.979187,1169.000000 787.958252,1169.000000 597.468628,1169.000000 
z"/>
<path fill="#FFFFFF" opacity="1.000000" stroke="none" 
	d="
M0.999999,617.468628 
	C1.333251,618.144348 1.849987,619.269409 1.972097,620.435852 
	C3.672019,636.674561 4.541600,653.045593 7.166161,669.131042 
	C10.748488,691.086426 14.729128,713.064270 20.265808,734.588196 
	C25.523420,755.027161 32.412140,775.110291 39.653198,794.959656 
	C49.346741,821.531799 61.795696,846.869446 75.717194,871.547363 
	C89.048409,895.178955 104.003334,917.687622 120.201836,939.367371 
	C128.401581,950.341797 137.457047,960.713318 146.584106,970.948547 
	C156.699280,982.291809 166.754868,993.798645 177.888947,1004.096252 
	C193.368561,1018.412964 209.769119,1031.739868 225.881592,1045.364990 
	C245.928970,1062.317627 267.908508,1076.625122 290.592041,1089.589722 
	C310.350983,1100.882812 330.893799,1111.024780 351.798645,1120.031128 
	C372.940338,1129.139526 394.695435,1137.044556 416.661560,1143.950806 
	C435.172791,1149.770752 454.288452,1153.791260 473.294403,1157.873169 
	C487.210541,1160.861938 501.342102,1162.955933 515.455078,1164.880371 
	C524.542847,1166.119507 533.764282,1166.448120 542.938049,1166.967163 
	C552.506165,1167.508545 562.089050,1167.788330 571.832764,1168.591309 
	C381.740814,1169.000000 191.481613,1169.000000 1.000000,1169.000000 
	C1.000000,985.312500 1.000000,801.624878 0.999999,617.468628 
z"/>
<path fill="#FFFFFF" opacity="1.000000" stroke="none" 
	d="
M1168.000000,552.531372 
	C1167.666748,552.022095 1167.128174,551.064148 1167.031006,550.063293 
	C1165.656738,535.902954 1164.343140,521.736694 1163.013184,507.572021 
	C1160.542114,481.256561 1154.980591,455.455780 1147.713867,430.180725 
	C1140.951416,406.659454 1132.725586,383.477448 1123.724121,360.707367 
	C1116.595825,342.675598 1107.909790,325.181183 1098.846680,308.012421 
	C1087.117920,285.794128 1073.687500,264.570465 1058.866211,244.204361 
	C1045.314819,225.583023 1031.198120,207.480164 1015.285889,190.824890 
	C1004.395264,179.425827 993.841736,167.638214 982.251465,156.988632 
	C961.393066,137.823090 939.397827,120.018181 916.010986,103.907341 
	C889.959778,85.961067 862.714600,70.163322 834.145813,56.688267 
	C802.629883,41.823120 770.193604,29.334171 736.277283,21.005754 
	C720.967407,17.246288 705.674500,13.361494 690.238708,10.192019 
	C680.391235,8.170030 670.324768,7.068645 660.305420,6.063767 
	C644.003479,4.428783 627.659790,3.210765 611.166870,1.408385 
	C796.593445,1.000000 982.186829,1.000000 1168.000000,1.000000 
	C1168.000000,184.687500 1168.000000,368.375092 1168.000000,552.531372 
z"/>
<path fill="#FFFFFF" opacity="1.000000" stroke="none" 
	d="
M557.531372,0.999999 
	C556.688782,1.333259 555.394409,1.848637 554.063782,1.971870 
	C539.235718,3.345065 524.400696,4.642746 509.570160,5.989998 
	C485.661591,8.161927 462.271698,13.236407 439.054626,19.060387 
	C414.308868,25.267836 389.981598,32.945751 366.517975,42.996155 
	C348.527771,50.702084 330.607849,58.678753 313.173950,67.551392 
	C288.038971,80.343369 264.086792,95.229439 241.472595,112.126251 
	C230.016388,120.686081 218.560944,129.340546 207.885910,138.830490 
	C191.466705,153.426880 174.834412,167.958099 159.923706,184.030273 
	C143.315643,201.932022 128.035324,221.142120 113.071144,240.474762 
	C89.611244,270.783295 70.975006,304.101196 54.747272,338.750854 
	C41.742393,366.519043 30.815950,395.104950 23.037138,424.798767 
	C18.432852,442.374603 13.899454,459.994690 10.220506,477.778259 
	C7.691807,490.001648 6.434898,502.512329 5.068099,514.945007 
	C3.689303,527.486816 2.876524,540.090942 1.407881,552.833862 
	C1.000000,369.072571 1.000000,185.145157 1.000000,1.000000 
	C186.354172,1.000000 371.708435,1.000000 557.531372,0.999999 
z"/>
<path fill="#FEFEFE" opacity="1.000000" stroke="none" 
	d="
M384.331879,649.365356 
	C362.730988,657.142578 340.725647,660.135376 318.265381,660.206116 
	C295.289825,660.278503 272.313812,660.222168 248.768143,660.222168 
	C248.768143,698.067810 248.768143,735.615723 248.768143,773.501831 
	C209.816238,773.501831 171.433395,773.501831 132.743958,773.501831 
	C132.743958,648.602417 132.743958,523.689697 132.743958,398.156342 
	C134.593460,398.156342 136.353378,398.156311 138.113297,398.156311 
	C206.776382,398.156311 275.439484,398.174408 344.102478,398.100159 
	C347.359436,398.096619 349.398102,398.870697 351.376465,401.794006 
	C386.914825,454.306061 422.634491,506.695374 458.169312,559.209778 
	C459.350006,560.954651 459.755646,563.917480 459.252014,566.006165 
	C449.346893,607.087036 424.044281,634.468384 384.331879,649.365356 
M228.301361,531.093323 
	C229.017578,532.010864 229.653015,533.007507 230.462097,533.834167 
	C242.330002,545.959595 254.067642,558.218506 266.167206,570.108887 
	C272.853546,576.679626 281.561218,576.369995 288.421844,569.608521 
	C300.034515,558.163696 311.456604,546.523987 322.853729,534.863586 
	C324.686493,532.988464 326.214172,530.711853 327.475555,528.398743 
	C334.906525,514.772217 331.132050,497.036804 318.999298,488.022614 
	C307.196869,479.253845 292.369385,480.996552 280.848633,492.674103 
	C279.616852,493.922668 279.142578,495.918610 278.316925,497.567841 
	C274.046936,493.253387 271.556396,490.539368 268.717804,488.258545 
	C256.454834,478.405426 238.867523,480.597595 229.238144,493.054993 
	C220.998947,503.713989 220.509903,517.825623 228.301361,531.093323 
z"/>
<path fill="#FEFEFE" opacity="1.000000" stroke="none" 
	d="
M709.671509,469.695862 
	C685.669067,504.911102 661.874084,539.832825 637.952698,574.940063 
	C682.509521,640.996521 727.018555,706.982056 772.117859,773.842712 
	C769.519409,773.842712 768.088867,773.842773 766.658325,773.842773 
	C723.328491,773.842773 679.998596,773.797058 636.669189,773.933411 
	C633.367310,773.943787 631.698425,772.893127 630.114380,770.109314 
	C610.869324,736.289246 591.499329,702.540283 572.159180,668.774353 
	C571.003479,666.756653 569.824646,664.752197 568.312073,662.148621 
	C561.932983,672.913452 555.772095,683.302551 549.618469,693.695862 
	C534.535583,719.170410 519.444641,744.640137 504.395172,770.134399 
	C503.086945,772.350586 501.972778,773.951050 498.779053,773.940247 
	C455.616394,773.794189 412.453064,773.841797 369.289917,773.833618 
	C368.817474,773.833557 368.345001,773.728821 367.147400,773.587158 
	C368.407074,771.691711 369.423096,770.081116 370.518372,768.526428 
	C456.600494,646.335327 542.680542,524.142700 628.859802,402.020203 
	C630.086304,400.282166 632.556091,398.328705 634.455200,398.318878 
	C675.435547,398.106689 716.417175,398.157501 758.411133,398.157501 
	C741.984680,422.271545 725.931885,445.836975 709.671509,469.695862 
z"/>
<path fill="#FEFEFE" opacity="1.000000" stroke="none" 
	d="
M1048.843750,686.067749 
	C1048.843750,715.386963 1048.843750,744.214966 1048.843750,773.843628 
	C1046.934692,773.843628 1045.190430,773.843628 1043.446045,773.843628 
	C967.446106,773.843628 891.446228,773.825195 815.446350,773.908936 
	C812.313110,773.912354 810.381042,773.153198 808.541443,770.408020 
	C795.478333,750.914612 782.152222,731.597534 769.063110,712.121277 
	C767.773376,710.202271 766.872681,707.590759 766.870239,705.299500 
	C766.763428,604.133118 766.777649,502.966553 766.783875,401.800018 
	C766.783936,400.806854 766.872314,399.813690 766.935120,398.490112 
	C805.259705,398.490112 843.513794,398.490112 882.561523,398.490112 
	C882.561523,444.759827 882.561523,491.174438 882.561523,537.589050 
	C882.561523,583.910400 882.561523,630.231750 882.561523,676.949585 
	C937.855835,676.949585 992.957703,676.949585 1048.843750,676.949585 
	C1048.843750,680.076172 1048.843750,682.826416 1048.843750,686.067749 
z"/>
<path fill="#FEFEFE" opacity="1.000000" stroke="none" 
	d="
M515.340820,398.158203 
	C516.900391,399.192780 518.388794,400.022339 519.101929,401.288513 
	C530.434143,421.409119 541.720459,441.556396 552.808044,461.812073 
	C553.585571,463.232452 553.445374,466.050507 552.521912,467.374817 
	C532.831299,495.611481 512.966675,523.726746 493.144409,551.871582 
	C492.863678,552.270142 492.690125,552.744263 492.135254,553.833191 
	C455.056702,501.725342 418.497162,450.346802 381.359833,398.156311 
	C426.523590,398.156311 470.716309,398.156311 515.340820,398.158203 
z"/>
<path fill="#040303" opacity="1.000000" stroke="none" 
	d="
M228.121735,530.774170 
	C220.509903,517.825623 220.998947,503.713989 229.238144,493.054993 
	C238.867523,480.597595 256.454834,478.405426 268.717804,488.258545 
	C271.556396,490.539368 274.046936,493.253387 278.316925,497.567841 
	C279.142578,495.918610 279.616852,493.922668 280.848633,492.674103 
	C292.369385,480.996552 307.196869,479.253845 318.999298,488.022614 
	C331.132050,497.036804 334.906525,514.772217 327.475555,528.398743 
	C326.214172,530.711853 324.686493,532.988464 322.853729,534.863586 
	C311.456604,546.523987 300.034515,558.163696 288.421844,569.608521 
	C281.561218,576.369995 272.853546,576.679626 266.167206,570.108887 
	C254.067642,558.218506 242.330002,545.959595 230.462097,533.834167 
	C229.653015,533.007507 229.017578,532.010864 228.121735,530.774170 
M274.603973,520.941345 
	C269.111481,515.383484 263.785645,509.647156 258.079803,504.317657 
	C252.330002,498.946960 243.780014,501.261230 242.157913,508.946228 
	C241.422440,512.430664 241.889496,517.713196 244.083160,520.010742 
	C254.954880,531.397461 266.584991,542.060059 277.514648,552.561646 
	C281.605621,548.716675 286.388916,544.361877 291.011078,539.842285 
	C297.193970,533.796509 303.389862,527.752991 309.320190,521.463379 
	C314.102814,516.390930 313.731384,508.877747 308.899353,504.475189 
	C304.462067,500.432251 299.355896,501.019318 294.053558,506.306244 
	C289.108795,511.236633 284.195648,516.201355 279.381317,521.258301 
	C277.859161,522.857117 276.636841,523.609558 274.603973,520.941345 
z"/>
<path fill="#FDFDFD" opacity="1.000000" stroke="none" 
	d="
M274.853271,521.197754 
	C276.636841,523.609558 277.859161,522.857117 279.381317,521.258301 
	C284.195648,516.201355 289.108795,511.236633 294.053558,506.306244 
	C299.355896,501.019318 304.462067,500.432251 308.899353,504.475189 
	C313.731384,508.877747 314.102814,516.390930 309.320190,521.463379 
	C303.389862,527.752991 297.193970,533.796509 291.011078,539.842285 
	C286.388916,544.361877 281.605621,548.716675 277.514648,552.561646 
	C266.584991,542.060059 254.954880,531.397461 244.083160,520.010742 
	C241.889496,517.713196 241.422440,512.430664 242.157913,508.946228 
	C243.780014,501.261230 252.330002,498.946960 258.079803,504.317657 
	C263.785645,509.647156 269.111481,515.383484 274.853271,521.197754 
z"/>
</svg>